<?xml version="1.0" encoding="UTF-8"?>
<!DOCTYPE svg PUBLIC "-//W3C//DTD SVG 1.1//EN" "http://www.w3.org/Graphics/SVG/1.1/DTD/svg11.dtd">
<!-- Creator: CorelDRAW 2020 (64-Bit) -->
<svg xmlns="http://www.w3.org/2000/svg" xml:space="preserve" width="16.5354in" height="11.6929in" version="1.1" style="shape-rendering:geometricPrecision; text-rendering:geometricPrecision; image-rendering:optimizeQuality; fill-rule:evenodd; clip-rule:evenodd"
viewBox="0 0 16535.43 11692.91"
 xmlns:xlink="http://www.w3.org/1999/xlink"
 xmlns:xodm="http://www.corel.com/coreldraw/odm/2003">
 <defs>
  <style type="text/css">
   <![CDATA[
    .fil1 {fill:black}
    .fil0 {fill:black}
    .fil2 {fill:#609175}
   ]]>
  </style>
   <clipPath id="id0">
    <rect x="-52243.3" y="-13121.98" width="39495.06" height="12331.79"/>
   </clipPath>
   <clipPath id="id1">
    <rect x="-9044.13" y="-17760.26" width="39495.06" height="12331.79"/>
   </clipPath>
 </defs>
 <g id="Layer_x0020_1">
  <metadata id="CorelCorpID_0Corel-Layer"/>
  <g style="clip-path:url(#id0)">
   <image x="-52243.3" y="-13121.98" width="39495.06" height="12331.79" xlink:href="lako icon_Images\lako icon_ImgID1.png"/>
  </g>
  <g id="_2036025944608">
   <path class="fil0" d="M2282.07 4351.87l0 1251.17 -294.05 0 0 -1568.28 74.95 5.76c96.16,0 195.24,-29.53 256.23,-66.65 131.7,-80.19 145.36,-131.79 176.2,-152.44 6.76,25.32 51.3,68.32 70.88,84.79 197.65,166.17 439.56,179.82 654.57,35.26l85.11 -76.33c10.22,-13.11 26.39,-35.94 37,-43.72 167.16,249.63 550.87,316.28 814.53,41.92 14.84,-15.44 21.78,-30.52 38.8,-41.92 4.97,18.63 1.06,7.04 12.63,21.97 166.02,214.19 469.36,261.77 712.82,98.08 71.68,-48.19 101.81,-105.17 122.11,-120.05 70.75,105.65 199.47,189.62 331.01,210.97 56.42,9.16 73.7,9.83 130.09,6.61 14.98,-0.86 23.22,-7.91 23.22,13.06l0 1533.69c0,13.29 -4.01,17.3 -17.3,17.3l-2150.63 0 0 -1251.17c0,-64.27 -41.83,-109.55 -86.49,-109.55l-905.22 0c-44.66,0 -86.49,45.28 -86.49,109.55zm-547.75 -882.16l0 -265.23c0,-21.6 263.96,-278.37 289.73,-304.14 15.97,-15.97 88.64,-99.46 102.34,-99.46l3274.94 0c26.19,0 247.98,245.74 295.44,292.66 17.19,17 96.63,85.09 96.63,105.17l0 340.18c0,186.06 -199.44,355.81 -417.28,296.19 -140.32,-38.41 -231.57,-165.96 -239.74,-313.77 -6.45,-116.69 -126.48,-117.51 -168.67,-64.32 -46.19,58.23 9.9,99.02 -76.15,240.96 -106.64,175.92 -393.85,217.56 -545.49,8.26 -80.99,-111.79 -38.96,-184.51 -75.58,-241.54 -38.14,-59.39 -172.76,-73.41 -178.04,79.94 -5.52,160.38 -155.52,307.22 -327.89,303.23 -193.94,-4.49 -302.87,-135.16 -326.13,-306.43 -5.69,-41.84 0.5,-54.52 -21.96,-81.82 -41.14,-49.98 -113.46,-46.37 -149.69,-2.64 -43.65,52.67 4.96,119.33 -75.96,241.15 -187.05,281.58 -591.76,127.74 -603.11,-153.53 -3.07,-75.92 -19.68,-121.01 -109.63,-121.01 -94.17,0 -85.15,146.02 -97.94,190.35 -68.67,237.88 -375.94,309.02 -540.67,142.68 -82.85,-83.65 -105.17,-158.59 -105.17,-286.9zm443.96 -1130.09l3176.93 0 0 265.22 -3176.93 0 0 -265.22zm-634.23 812.97l0 374.77c0,177.62 111.81,363.13 253.69,438.2l0 1666.3c0,37.74 -5.59,85.5 9.2,111.88 11.78,21.01 41.97,49.56 71.52,49.56l513.15 0c28.05,0 49.38,-18.72 62.86,-35.16 15.66,-19.09 23.63,-46.65 23.63,-80.15l0 -1245.4 686.13 0 0 1239.64c0,64.66 31.28,121.08 86.48,121.08l2375.49 0c89.87,0 92.4,-86.03 92.26,-144.14l-0 -1677.84c29.75,-6.93 87.26,-55.23 108.16,-76.35 101.91,-103 162.83,-222.97 162.83,-390.68l0 -345.94c0,-64.99 -59.69,-96.93 -117.02,-165.51 -14.57,-17.43 -32.32,-32.83 -48.75,-49.27 -65.79,-65.79 -127.18,-127.56 -193.16,-193.15 -8.68,-8.62 -15.11,-14.13 -23.02,-23.11 -10.15,-11.52 -10.11,-14.38 -20.27,-25.85 -21.8,-24.6 -35.65,-20.17 -36.47,-61.55 -2.32,-117.25 5.57,-272.83 0.59,-381.13 -1.39,-30.26 -8.37,-56.16 -24.28,-73.74 -13.54,-14.95 -36.06,-35.7 -62.32,-35.7l-3390.26 0c-123.04,0 -92.25,177.12 -92.25,288.29 0,63.52 -0.31,127.06 0.3,190.56 0.52,54.14 -12.16,49.26 -79.58,116.46 -19.52,19.45 -25.89,27.69 -43.5,48.75 -14.57,17.43 -32.32,32.84 -48.75,49.27 -84.06,84.06 -158.31,154.22 -236.59,241.96 -17.69,19.83 -30.07,30.96 -30.07,67.94z"/>
   <path class="fil1" d="M12948.71 3204.48c20.18,-4.7 72.74,-40.09 146.51,-61.06 113.02,-32.11 255.87,-37.34 370.07,5.73 100.64,37.96 105.61,62 135.94,77.93 20.98,11.01 47.26,-6.54 77.36,-13.44 32.11,-7.35 54.52,-11.61 88.34,-15.44 242.35,-27.44 468.94,37.89 633.31,203.74 123.13,124.24 186.26,245.32 221.13,418.87 47.18,234.81 -19.16,490.59 -161.18,664.52 -220.9,270.53 -592.3,357.67 -913.83,197.16 -137.84,-68.81 -249.13,-176.09 -327.81,-306.41 -83.45,-138.22 -115.87,-372.09 -73.91,-531.72 26.35,-100.26 101.69,-191.48 195.28,-225.62 182.7,-66.66 273.1,65.02 306.45,87.35 6.83,-82.12 43.65,-145.93 -20.97,-278.85 -37.88,-77.91 -102.07,-126.06 -181.52,-158.66 -78.47,-32.19 -190.77,-47.16 -298.4,-28.79 -162.59,27.74 -326.67,135.2 -390.38,289.97 -111.07,269.82 -99.32,609.62 -10.41,864.68 138.19,396.43 499.14,707.11 918.09,777.04 208.12,34.74 405.82,20.79 607.07,-40.48 41.86,-12.74 80.07,-31.59 119.51,-47.7 141.07,-57.62 333.94,-212.49 427.51,-333.57 125,-161.74 197.08,-287.9 244.52,-522.32 40.95,-202.37 22.8,-437.94 -27.47,-611.58 -51.84,-179.04 -136.85,-313.08 -241.86,-438.5 -23.53,-28.11 -56.59,-57.11 -83.35,-83.86 -154.71,-154.72 -323.22,-253.2 -539.93,-307.64 -281.82,-70.8 -614.33,-22.55 -849.21,109.12 -155.37,87.1 -236.66,151.15 -352.41,281.83 -13.52,15.26 -12.84,6.7 -18.44,27.68z"/>
   <path class="fil1" d="M8399.54 5136.01l467.03 0 570.75 -1481.85c13.74,-34.56 27.01,-67.5 41.26,-102.89l51.06 -110.38c1.87,22.43 207.88,542.96 225.69,587.29l74.13 196.85c-162.34,0 -393.21,-7.24 -525.1,68.77 -40.94,23.59 -80.76,56.17 -108.43,93.37 -61.98,83.36 -86.09,191.72 -31.52,301.11 44.7,89.61 155.28,169.26 232.63,170.98 -0.51,-22.74 -5.77,-25.37 -5.77,-69.19 0,-162.07 501.25,-132.61 611.17,-132.61 1.87,22.42 31.97,93.67 42.04,119.4l112.77 296.59c8,21.65 14.79,43.52 23.93,62.56l461.26 0 -232.25 -609.55c-119.52,-297.18 -232.77,-619.42 -352.58,-915.89 -96.17,-237.96 -199.38,-517.22 -293.1,-762.04 -16.63,-43.43 -8.83,-37.89 -59.17,-44.61 -166.6,-22.26 -293.59,0.74 -410.77,119.37 -78.64,79.61 -111.05,191.8 -151.18,292.78l-711.68 1836.78c-10.1,26.56 -26.34,58.18 -32.16,83.15z"/>
   <path class="fil1" d="M11420.79 3596.56l0 -801.44 -455.5 0 0 2323.6c0,13.28 4.01,17.3 17.3,17.3l438.2 0 0 -1032.07 720.72 1032.07 524.69 0c-6.79,-29.13 -287.77,-426.02 -331.98,-486.76 -136.7,-187.78 -282.74,-417.7 -420,-606.3l-141.71 -204.24 509.82 -649.09c23.04,-29.5 297.19,-372.17 303.15,-394.5 -48.02,-23.04 -201.05,-28.83 -270.99,-28.83 -262.14,0 -376.5,164.38 -512.35,346.74 -17.83,23.94 -365.12,472.67 -381.33,483.52z"/>
   <path class="fil1" d="M6860.08 3175.66l0 1943.06c0,13.28 4.01,17.3 17.3,17.3l1228.11 0 0 -426.67 -801.44 0 0 -1914.23c-241.46,0 -443.96,99.2 -443.96,380.54z"/>
   <path class="fil0" d="M3815.76 4432.59l1303.06 0 0 772.61 -1303.06 0 0 -772.61zm-196.04 -92.25l0 962.88c0,56.76 47.09,98.02 103.78,98.02l1476.03 0c58.65,0 109.55,-34.97 109.55,-80.72l0 -997.48c0,-42.46 -47.17,-80.72 -92.25,-80.72l-1510.63 0c-19.74,0 -51.94,18.65 -62.09,30.16 -12.15,13.8 -24.4,43 -24.4,67.85z"/>
   <polygon class="fil2" points="12948.71,3204.48 12942.95,3204.48 12947.75,3211.21 "/>
  </g>
  <g style="clip-path:url(#id1)">
   <image x="-9044.13" y="-17760.26" width="39495.06" height="12331.79" xlink:href="lako icon_Images\lako icon_ImgID2.png"/>
  </g>
 </g>
</svg>
